<svg width="47" height="47" viewBox="0 0 47 47" fill="none" xmlns="http://www.w3.org/2000/svg">
<ellipse cx="23.7531" cy="36.9493" rx="23.2472" ry="9.58647" fill="#44CBC3"/>
<path d="M23.7529 24.1738C30.0922 24.1738 35.7933 25.2351 39.8789 26.9199C41.9236 27.7631 43.5247 28.747 44.6016 29.7969C45.6755 30.844 46.1807 31.9066 46.1807 32.9414C46.1805 33.9762 45.6756 35.0388 44.6016 36.0859C43.5247 37.1358 41.9236 38.1187 39.8789 38.9619C35.7933 40.6467 30.0922 41.708 23.7529 41.708C17.4137 41.708 11.7125 40.6467 7.62695 38.9619C5.5826 38.1189 3.98207 37.1356 2.90527 36.0859C1.83121 35.0388 1.32534 33.9762 1.3252 32.9414C1.3252 31.9065 1.83111 30.8442 2.90527 29.7969C3.98208 28.747 5.58235 27.7631 7.62695 26.9199C11.7125 25.2352 17.4137 24.1738 23.7529 24.1738Z" fill="url(#paint0_linear_2787_2563)" stroke="black" stroke-width="1.63943"/>
<path d="M18.1475 5.22766C19.9273 -0.385014 27.4338 -0.495233 29.4102 4.922L29.5 5.18469C32.4057 14.2246 35.291 24.0751 35.9678 29.3751L36.0264 29.8732C36.0802 30.379 35.8067 30.8702 35.3037 31.1232L35.1992 31.171C31.2941 32.782 28.2768 33.3194 23.7529 33.3195C19.5116 33.3195 16.5942 32.8475 13.0283 31.4611L12.3057 31.171C11.7735 30.9514 11.4712 30.4807 11.4902 29.9874L11.499 29.8878C12.0329 25.6539 14.4184 17.2145 17.0225 8.8136L18.1475 5.22766Z" fill="url(#paint1_linear_2787_2563)" stroke="black" stroke-width="1.63943"/>
<path d="M12.3794 25.5187C12.3794 25.5187 16.3755 27.7729 23.8554 27.7729C31.3352 27.7729 35.3313 25.5187 35.3313 25.5187" stroke="black" stroke-width="1.63943"/>
<g style="mix-blend-mode:darken">
<path d="M20.269 15.3746C21.8265 22.4242 42.0939 37.097 46.1925 34.1256C48.2417 30.027 35.946 25.9284 35.946 25.9284V30.027L33.4869 17.8338C30.9595 17.0824 24.3676 15.3746 20.269 15.3746Z" fill="#44CBC3"/>
</g>
<path d="M20.6304 14.6495C23.3257 16.0276 32.4158 17.5702 38.8298 18.5302C41.0627 18.8644 42.3946 16.2345 40.8058 14.6305C36.1381 9.91807 29.3665 3.29442 27.0437 2.10673L20.6304 14.6495Z" fill="url(#paint2_linear_2787_2563)"/>
<path d="M20.6304 14.6495C23.3257 16.0276 32.4158 17.5702 38.8298 18.5302C41.0627 18.8644 42.3946 16.2345 40.8058 14.6305C36.1381 9.91807 29.3665 3.29442 27.0437 2.10673" stroke="black" stroke-width="1.63943" stroke-linecap="round"/>
<defs>
<linearGradient id="paint0_linear_2787_2563" x1="23.7531" y1="23.3545" x2="23.7531" y2="42.5274" gradientUnits="userSpaceOnUse">
<stop stop-color="#20ACA4"/>
<stop offset="0.567308" stop-color="#53D8D1"/>
<stop offset="1" stop-color="#62F5EA"/>
</linearGradient>
<linearGradient id="paint1_linear_2787_2563" x1="23.7527" y1="-14.2723" x2="23.7527" y2="34.1393" gradientUnits="userSpaceOnUse">
<stop stop-color="#20ACA4"/>
<stop offset="0.567308" stop-color="#53D8D1"/>
<stop offset="1" stop-color="#62F5EA"/>
</linearGradient>
<linearGradient id="paint2_linear_2787_2563" x1="45.5258" y1="19.4678" x2="23.8371" y2="8.37811" gradientUnits="userSpaceOnUse">
<stop stop-color="#20ACA4"/>
<stop offset="0.567308" stop-color="#53D8D1"/>
<stop offset="1" stop-color="#62F5EA"/>
</linearGradient>
</defs>
</svg>
