<svg width="51" height="51" viewBox="0 0 51 51" fill="none" xmlns="http://www.w3.org/2000/svg">
<g clip-path="url(#clip0_2372_737)">
<path d="M35.5066 44.251L46.75 46.75L44.251 35.5066C45.8967 32.4283 46.7552 28.9906 46.75 25.5C46.75 13.7636 37.2364 4.25 25.5 4.25C13.7636 4.25 4.24998 13.7636 4.24998 25.5C4.24998 37.2364 13.7636 46.75 25.5 46.75C28.9906 46.7553 32.4283 45.8967 35.5066 44.251ZM34.8904 39.7609L33.5027 40.5046C31.0408 41.8203 28.2914 42.5058 25.5 42.5C22.1377 42.5 18.8509 41.503 16.0553 39.635C13.2596 37.767 11.0807 35.112 9.79402 32.0056C8.50733 28.8993 8.17068 25.4811 8.82663 22.1835C9.48257 18.8858 11.1017 15.8567 13.4792 13.4792C15.8567 11.1017 18.8858 9.4826 22.1834 8.82665C25.4811 8.1707 28.8993 8.50736 32.0056 9.79405C35.1119 11.0807 37.767 13.2597 39.635 16.0553C41.5029 18.8509 42.5 22.1377 42.5 25.5C42.5 28.3347 41.8094 31.0632 40.5025 33.5028L39.7609 34.8904L41.1527 41.1527L34.8904 39.7609Z" fill="black"/>
</g>
<defs>
<clipPath id="clip0_2372_737">
<rect width="51" height="51" fill="white" transform="matrix(-1 0 0 1 51 0)"/>
</clipPath>
</defs>
</svg>
