<svg width="24" height="24" viewBox="0 0 24 24" fill="none" xmlns="http://www.w3.org/2000/svg">
<g clip-path="url(#clip0_2051_4088)">
<path d="M12 22C6.477 22 2 17.523 2 12C2 6.477 6.477 2 12 2C17.523 2 22 6.477 22 12C22 17.523 17.523 22 12 22ZM12 20C14.1217 20 16.1566 19.1571 17.6569 17.6569C19.1571 16.1566 20 14.1217 20 12C20 9.87827 19.1571 7.84344 17.6569 6.34315C16.1566 4.84285 14.1217 4 12 4C9.87827 4 7.84344 4.84285 6.34315 6.34315C4.84285 7.84344 4 9.87827 4 12C4 14.1217 4.84285 16.1566 6.34315 17.6569C7.84344 19.1571 9.87827 20 12 20Z" fill="#FEFFFF"/>
<path d="M13.424 13.4979H8V11.7728H13.3643C13.7687 11.7728 14.1001 11.7131 14.3587 11.5938C14.6172 11.4745 14.8078 11.3055 14.9304 11.0867C15.053 10.868 15.1143 10.6094 15.1143 10.3111C15.1143 10.0195 15.053 9.75599 14.9304 9.52066C14.8078 9.28534 14.6205 9.09808 14.3686 8.95887C14.1167 8.81967 13.8018 8.75007 13.424 8.75007H11.5845V17.1819H9.44673V7.00007H13.424C14.2294 7.00007 14.9188 7.14424 15.4922 7.43259C16.0689 7.71763 16.5097 8.10873 16.8146 8.60589C17.1196 9.09974 17.2704 9.65987 17.267 10.2863C17.2704 10.9425 17.1162 11.511 16.8047 11.9915C16.4931 12.4721 16.049 12.8433 15.4723 13.1052C14.8956 13.367 14.2128 13.4979 13.424 13.4979ZM13.8068 14.1542V15.8793H8V14.1542H13.8068Z" fill="#FEFFFF"/>
</g>
<defs>
<clipPath id="clip0_2051_4088">
<rect width="24" height="24" fill="white"/>
</clipPath>
</defs>
</svg>
