<svg width="33" height="35" viewBox="0 0 33 35" fill="none" xmlns="http://www.w3.org/2000/svg">
<g clip-path="url(#clip0_2051_3690)">
<path fill-rule="evenodd" clip-rule="evenodd" d="M16.5 35C25.6127 35 33 27.165 33 17.5C33 7.83503 25.6127 0 16.5 0C7.38731 0 0 7.83503 0 17.5C0 27.165 7.38731 35 16.5 35ZM8.25 13.7871C8.25 11.0095 10.3807 8.75 12.9993 8.75H20.0007C22.6196 8.75 24.75 11.0098 24.75 13.7871V21.281C24.75 24.0583 22.6196 26.3181 20.0007 26.3181H12.9993C10.3804 26.3181 8.25 24.0583 8.25 21.281V13.7871ZM20.0007 24.6511C21.7527 24.6511 23.1782 23.1392 23.1782 21.281V13.7871C23.1782 11.9289 21.7527 10.417 20.0007 10.417H12.9993C11.2473 10.417 9.82176 11.9289 9.82176 13.7871V21.281C9.82176 23.1392 11.2473 24.6511 12.9993 24.6511H20.0007ZM12.2061 17.5019C12.2061 15.0096 14.1385 12.9823 16.5131 12.9823C18.8877 12.9823 20.8201 15.0096 20.8201 17.5019C20.8201 19.9938 18.8877 22.0212 16.5131 22.0212C14.1382 22.0212 12.2061 19.9938 12.2061 17.5019ZM13.7749 17.5019C13.7749 19.0762 15.0032 20.3573 16.5131 20.3573C18.0231 20.3573 19.2513 19.0764 19.2513 17.5019C19.2513 15.9273 18.0228 14.6464 16.5131 14.6464C15.0032 14.6464 13.7749 15.9273 13.7749 17.5019ZM20.8972 13.8724C21.4569 13.8724 21.9105 13.3912 21.9105 12.7976C21.9105 12.204 21.4569 11.7228 20.8972 11.7228C20.3375 11.7228 19.8838 12.204 19.8838 12.7976C19.8838 13.3912 20.3375 13.8724 20.8972 13.8724Z" fill="#FECD19"/>
</g>
<defs>
<clipPath id="clip0_2051_3690">
<rect width="33" height="35" fill="white"/>
</clipPath>
</defs>
</svg>
