<svg width="33" height="35" viewBox="0 0 33 35" fill="none" xmlns="http://www.w3.org/2000/svg">
<g clip-path="url(#clip0_2051_3688)">
<path fill-rule="evenodd" clip-rule="evenodd" d="M16.5 35C25.6127 35 33 27.165 33 17.5C33 7.83503 25.6127 0 16.5 0C7.38731 0 0 7.83503 0 17.5C0 27.165 7.38731 35 16.5 35ZM8.25 11.9C8.38398 18.7207 11.5994 22.8198 17.2368 22.8198H17.5564V18.9175C19.6279 19.1361 21.1943 20.7429 21.823 22.8198H24.75C23.9461 19.7154 21.8333 17.9993 20.5141 17.3435C21.8333 16.5346 23.6884 14.5671 24.1315 11.9H21.4725C20.8954 14.0643 19.1848 16.0318 17.5564 16.2176V11.9H14.8974V19.464C13.2484 19.0268 11.1666 16.9063 11.0739 11.9H8.25Z" fill="#FECD19"/>
</g>
<defs>
<clipPath id="clip0_2051_3688">
<rect width="33" height="35" fill="white"/>
</clipPath>
</defs>
</svg>
