<svg width="52" height="51" viewBox="0 0 52 51" fill="none" xmlns="http://www.w3.org/2000/svg">
<ellipse cx="26.0004" cy="45.8" rx="22.6" ry="4.2" fill="#D9D9D9"/>
<path fill-rule="evenodd" clip-rule="evenodd" d="M14.1994 39.6C13.7576 39.6 13.3994 39.9581 13.3994 40.4V44.8C13.3994 45.2418 13.7576 45.6 14.1994 45.6C14.6412 45.6 14.9994 45.2418 14.9994 44.8V40.4C14.9994 39.9581 14.6412 39.6 14.1994 39.6ZM37.9995 39.6C37.5576 39.6 37.1995 39.9582 37.1995 40.4V44.8C37.1995 45.2419 37.5576 45.6 37.9995 45.6C38.4413 45.6 38.7995 45.2419 38.7995 44.8V40.4C38.7995 39.9582 38.4413 39.6 37.9995 39.6Z" fill="black"/>
<path d="M3.67676 15.3761H48.4229" stroke="black" stroke-width="1.6" stroke-linecap="round"/>
<path d="M46.625 15.5404V25.6C46.625 36.2038 38.0287 44.8002 27.4248 44.8002H24.4033C13.7995 44.8002 5.20312 36.2038 5.20312 25.6V15.5404H46.625Z" fill="#44CBC3" stroke="black" stroke-width="1.6"/>
<g style="mix-blend-mode:darken">
<path d="M35.2002 14.8003H46.4002L46.0579 29.2891C45.9058 35.7283 41.4557 41.2659 35.2002 42.8003C35.2002 42.8003 37.2002 40.2003 37.2002 24.8003C37.2002 14.8003 35.2002 14.8003 35.2002 14.8003Z" fill="#D9D9D9"/>
</g>
<mask id="path-6-inside-1_2787_3451" fill="white">
<path fill-rule="evenodd" clip-rule="evenodd" d="M10.7568 15.2853C10.7568 13.0797 12.5448 11.2917 14.7504 11.2917C15.7669 11.2917 16.6946 11.6715 17.3995 12.2968C18.0233 11.6757 18.8834 11.2918 19.8331 11.2918C20.6192 11.2918 21.3439 11.5548 21.9239 11.9976C22.4157 11.6665 23.0079 11.4733 23.6453 11.4733C25.3496 11.4733 26.7312 12.8549 26.7312 14.5592V16.0114H23.2821V19.0974C23.2821 21.0023 21.738 22.5464 19.8331 22.5464C19.4525 22.5464 19.0863 22.4848 18.744 22.3709V23.0909C18.744 25.2965 16.956 27.0845 14.7504 27.0845C12.5448 27.0845 10.7568 25.2965 10.7568 23.0909V15.2853Z"/>
</mask>
<path fill-rule="evenodd" clip-rule="evenodd" d="M10.7568 15.2853C10.7568 13.0797 12.5448 11.2917 14.7504 11.2917C15.7669 11.2917 16.6946 11.6715 17.3995 12.2968C18.0233 11.6757 18.8834 11.2918 19.8331 11.2918C20.6192 11.2918 21.3439 11.5548 21.9239 11.9976C22.4157 11.6665 23.0079 11.4733 23.6453 11.4733C25.3496 11.4733 26.7312 12.8549 26.7312 14.5592V16.0114H23.2821V19.0974C23.2821 21.0023 21.738 22.5464 19.8331 22.5464C19.4525 22.5464 19.0863 22.4848 18.744 22.3709V23.0909C18.744 25.2965 16.956 27.0845 14.7504 27.0845C12.5448 27.0845 10.7568 25.2965 10.7568 23.0909V15.2853Z" fill="#44CBC3"/>
<path d="M17.3995 12.2968L16.3378 13.4937L17.4628 14.4918L18.5285 13.4306L17.3995 12.2968ZM21.9239 11.9976L20.9531 13.2694L21.8655 13.9658L22.8175 13.3248L21.9239 11.9976ZM26.7312 16.0114V17.6114H28.3312V16.0114H26.7312ZM23.2821 16.0114V14.4114H21.6821V16.0114H23.2821ZM18.744 22.3709L19.2489 20.8527L17.144 20.1527V22.3709H18.744ZM14.7504 9.69175C11.6612 9.69175 9.15684 12.1961 9.15684 15.2853H12.3568C12.3568 13.9634 13.4285 12.8917 14.7504 12.8917V9.69175ZM18.4613 11.0999C17.475 10.2249 16.173 9.69175 14.7504 9.69175V12.8917C15.3607 12.8917 15.9142 13.1181 16.3378 13.4937L18.4613 11.0999ZM19.8331 9.69183C18.4432 9.69183 17.1819 10.2556 16.2706 11.1631L18.5285 13.4306C18.8646 13.0959 19.3235 12.8918 19.8331 12.8918V9.69183ZM22.8947 10.7257C22.0455 10.0775 20.9821 9.69183 19.8331 9.69183V12.8918C20.2563 12.8918 20.6422 13.0321 20.9531 13.2694L22.8947 10.7257ZM22.8175 13.3248C23.0534 13.1659 23.3361 13.0733 23.6453 13.0733V9.87326C22.6797 9.87326 21.7779 10.167 21.0303 10.6704L22.8175 13.3248ZM23.6453 13.0733C24.4659 13.0733 25.1312 13.7385 25.1312 14.5592H28.3312C28.3312 11.9712 26.2332 9.87326 23.6453 9.87326V13.0733ZM25.1312 14.5592V16.0114H28.3312V14.5592H25.1312ZM26.7312 14.4114H23.2821V17.6114H26.7312V14.4114ZM24.8821 19.0974V16.0114H21.6821V19.0974H24.8821ZM19.8331 24.1464C22.6216 24.1464 24.8821 21.8859 24.8821 19.0974H21.6821C21.6821 20.1186 20.8543 20.9464 19.8331 20.9464V24.1464ZM18.2391 23.8892C18.7422 24.0565 19.2788 24.1464 19.8331 24.1464V20.9464C19.6263 20.9464 19.4305 20.9131 19.2489 20.8527L18.2391 23.8892ZM20.344 23.0909V22.3709H17.144V23.0909H20.344ZM14.7504 28.6845C17.8397 28.6845 20.344 26.1802 20.344 23.0909H17.144C17.144 24.4129 16.0723 25.4845 14.7504 25.4845V28.6845ZM9.15684 23.0909C9.15684 26.1802 11.6612 28.6845 14.7504 28.6845V25.4845C13.4285 25.4845 12.3568 24.4129 12.3568 23.0909H9.15684ZM9.15684 15.2853V23.0909H12.3568V15.2853H9.15684Z" fill="black" mask="url(#path-6-inside-1_2787_3451)"/>
<mask id="path-8-inside-2_2787_3451" fill="white">
<path fill-rule="evenodd" clip-rule="evenodd" d="M14.1151 7.11673C15.9698 7.11673 17.4733 5.6132 17.4733 3.7585C17.4733 1.9038 15.9698 0.400269 14.1151 0.400269C12.2604 0.400269 10.7568 1.9038 10.7568 3.7585C10.7568 5.6132 12.2604 7.11673 14.1151 7.11673ZM37.441 8.47829C37.441 10.9345 35.4499 12.9257 32.9936 12.9257C30.5374 12.9257 28.5462 10.9345 28.5462 8.47829C28.5462 6.02206 30.5374 4.0309 32.9936 4.0309C35.4499 4.0309 37.441 6.02206 37.441 8.47829ZM24.9159 7.38899C24.9159 8.84267 23.7374 10.0211 22.2838 10.0211C20.8301 10.0211 19.6516 8.84267 19.6516 7.38899C19.6516 5.9353 20.8301 4.75686 22.2838 4.75686C23.7374 4.75686 24.9159 5.9353 24.9159 7.38899Z"/>
</mask>
<path fill-rule="evenodd" clip-rule="evenodd" d="M14.1151 7.11673C15.9698 7.11673 17.4733 5.6132 17.4733 3.7585C17.4733 1.9038 15.9698 0.400269 14.1151 0.400269C12.2604 0.400269 10.7568 1.9038 10.7568 3.7585C10.7568 5.6132 12.2604 7.11673 14.1151 7.11673ZM37.441 8.47829C37.441 10.9345 35.4499 12.9257 32.9936 12.9257C30.5374 12.9257 28.5462 10.9345 28.5462 8.47829C28.5462 6.02206 30.5374 4.0309 32.9936 4.0309C35.4499 4.0309 37.441 6.02206 37.441 8.47829ZM24.9159 7.38899C24.9159 8.84267 23.7374 10.0211 22.2838 10.0211C20.8301 10.0211 19.6516 8.84267 19.6516 7.38899C19.6516 5.9353 20.8301 4.75686 22.2838 4.75686C23.7374 4.75686 24.9159 5.9353 24.9159 7.38899Z" fill="#44CBC3"/>
<path d="M15.8733 3.7585C15.8733 4.72955 15.0861 5.51673 14.1151 5.51673V8.71673C16.8534 8.71673 19.0733 6.49686 19.0733 3.7585H15.8733ZM14.1151 2.00027C15.0861 2.00027 15.8733 2.78746 15.8733 3.7585H19.0733C19.0733 1.02015 16.8534 -1.19973 14.1151 -1.19973V2.00027ZM12.3568 3.7585C12.3568 2.78746 13.144 2.00027 14.1151 2.00027V-1.19973C11.3767 -1.19973 9.15684 1.02015 9.15684 3.7585H12.3568ZM14.1151 5.51673C13.144 5.51673 12.3568 4.72955 12.3568 3.7585H9.15684C9.15684 6.49686 11.3767 8.71673 14.1151 8.71673V5.51673ZM32.9936 14.5257C36.3335 14.5257 39.041 11.8182 39.041 8.47829H35.841C35.841 10.0509 34.5662 11.3257 32.9936 11.3257V14.5257ZM26.9462 8.47829C26.9462 11.8182 29.6538 14.5257 32.9936 14.5257V11.3257C31.4211 11.3257 30.1462 10.0509 30.1462 8.47829H26.9462ZM32.9936 2.4309C29.6538 2.4309 26.9462 5.13841 26.9462 8.47829H30.1462C30.1462 6.90572 31.4211 5.6309 32.9936 5.6309V2.4309ZM39.041 8.47829C39.041 5.13841 36.3335 2.4309 32.9936 2.4309V5.6309C34.5662 5.6309 35.841 6.90572 35.841 8.47829H39.041ZM22.2838 11.6211C24.6211 11.6211 26.5159 9.72633 26.5159 7.38899H23.3159C23.3159 7.95902 22.8538 8.42111 22.2838 8.42111V11.6211ZM18.0516 7.38899C18.0516 9.72633 19.9464 11.6211 22.2838 11.6211V8.42111C21.7137 8.42111 21.2516 7.95901 21.2516 7.38899H18.0516ZM22.2838 3.15686C19.9464 3.15686 18.0516 5.05165 18.0516 7.38899H21.2516C21.2516 6.81896 21.7137 6.35686 22.2838 6.35686V3.15686ZM26.5159 7.38899C26.5159 5.05165 24.6211 3.15686 22.2838 3.15686V6.35686C22.8538 6.35686 23.3159 6.81896 23.3159 7.38899H26.5159Z" fill="black" mask="url(#path-8-inside-2_2787_3451)"/>
</svg>
