<svg width="50" height="50" viewBox="0 0 50 50" fill="none" xmlns="http://www.w3.org/2000/svg">
<ellipse cx="25.0004" cy="45.7999" rx="22.6" ry="4.2" fill="#D9D9D9"/>
<mask id="path-2-inside-1_2787_4944" fill="white">
<path fill-rule="evenodd" clip-rule="evenodd" d="M43.1422 19.3511C43.1422 21.9651 42.5896 24.4501 41.5949 26.6955C42.5508 27.6485 43.1422 28.9668 43.1422 30.4232C43.1422 33.3304 40.7855 35.6871 37.8784 35.6871H35.7001V40.7696C35.7001 42.7745 34.0748 44.3998 32.0699 44.3998C30.0649 44.3998 28.4396 42.7745 28.4396 40.7696V37.1751C28.3792 37.1868 28.3187 37.1981 28.2581 37.2091V40.7696C28.2581 42.7745 26.6328 44.3998 24.6279 44.3998C22.623 44.3998 20.9976 42.7745 20.9976 40.7696V37.0617C20.9369 37.048 20.8764 37.0341 20.8159 37.0199V40.7696C20.8159 42.7745 19.1906 44.3998 17.1857 44.3998C15.1807 44.3998 13.5554 42.7745 13.5554 40.7696V35.6871H11.9221C9.01492 35.6871 6.6582 33.3304 6.6582 30.4232C6.6582 28.9031 7.30255 27.5335 8.33301 26.5726C7.37226 24.3595 6.83963 21.9175 6.83963 19.3511C6.83963 9.32643 14.9662 1.19983 24.9909 1.19983C35.0156 1.19983 43.1422 9.32643 43.1422 19.3511Z"/>
</mask>
<path fill-rule="evenodd" clip-rule="evenodd" d="M43.1422 19.3511C43.1422 21.9651 42.5896 24.4501 41.5949 26.6955C42.5508 27.6485 43.1422 28.9668 43.1422 30.4232C43.1422 33.3304 40.7855 35.6871 37.8784 35.6871H35.7001V40.7696C35.7001 42.7745 34.0748 44.3998 32.0699 44.3998C30.0649 44.3998 28.4396 42.7745 28.4396 40.7696V37.1751C28.3792 37.1868 28.3187 37.1981 28.2581 37.2091V40.7696C28.2581 42.7745 26.6328 44.3998 24.6279 44.3998C22.623 44.3998 20.9976 42.7745 20.9976 40.7696V37.0617C20.9369 37.048 20.8764 37.0341 20.8159 37.0199V40.7696C20.8159 42.7745 19.1906 44.3998 17.1857 44.3998C15.1807 44.3998 13.5554 42.7745 13.5554 40.7696V35.6871H11.9221C9.01492 35.6871 6.6582 33.3304 6.6582 30.4232C6.6582 28.9031 7.30255 27.5335 8.33301 26.5726C7.37226 24.3595 6.83963 21.9175 6.83963 19.3511C6.83963 9.32643 14.9662 1.19983 24.9909 1.19983C35.0156 1.19983 43.1422 9.32643 43.1422 19.3511Z" fill="#44CBC3"/>
<path d="M41.5949 26.6955L40.132 26.0475L39.6868 27.0525L40.4652 27.8286L41.5949 26.6955ZM35.7001 35.6871V34.0871H34.1001V35.6871H35.7001ZM28.4396 37.1751H30.0396V35.238L28.1374 35.6039L28.4396 37.1751ZM28.2581 37.2091L27.972 35.6349L26.6581 35.8737V37.2091H28.2581ZM20.9976 37.0617H22.5976V35.7811L21.3482 35.5005L20.9976 37.0617ZM20.8159 37.0199L21.1825 35.4624L19.2159 34.9996V37.0199H20.8159ZM13.5554 35.6871H15.1554V34.0871H13.5554V35.6871ZM8.33301 26.5726L9.42418 27.7428L10.2507 26.9721L9.80068 25.9355L8.33301 26.5726ZM43.0578 27.3436C44.1411 24.8979 44.7422 22.1926 44.7422 19.3511H41.5422C41.5422 21.7376 41.038 24.0022 40.132 26.0475L43.0578 27.3436ZM44.7422 30.4232C44.7422 28.5245 43.9692 26.8034 42.7246 25.5625L40.4652 27.8286C41.1323 28.4937 41.5422 29.4091 41.5422 30.4232H44.7422ZM37.8784 37.2871C41.6692 37.2871 44.7422 34.214 44.7422 30.4232H41.5422C41.5422 32.4467 39.9019 34.0871 37.8784 34.0871V37.2871ZM35.7001 37.2871H37.8784V34.0871H35.7001V37.2871ZM34.1001 35.6871V40.7696H37.3001V35.6871H34.1001ZM34.1001 40.7696C34.1001 41.8908 33.1911 42.7998 32.0699 42.7998V45.9998C34.9585 45.9998 37.3001 43.6581 37.3001 40.7696H34.1001ZM32.0699 42.7998C30.9486 42.7998 30.0396 41.8908 30.0396 40.7696H26.8396C26.8396 43.6581 29.1813 45.9998 32.0699 45.9998V42.7998ZM30.0396 40.7696V37.1751H26.8396V40.7696H30.0396ZM28.5442 38.7833C28.6103 38.7713 28.6761 38.759 28.7418 38.7463L28.1374 35.6039C28.0823 35.6145 28.0272 35.6248 27.972 35.6349L28.5442 38.7833ZM29.8581 40.7696V37.2091H26.6581V40.7696H29.8581ZM24.6279 45.9998C27.5165 45.9998 29.8581 43.6581 29.8581 40.7696H26.6581C26.6581 41.8908 25.7492 42.7998 24.6279 42.7998V45.9998ZM19.3976 40.7696C19.3976 43.6581 21.7393 45.9998 24.6279 45.9998V42.7998C23.5066 42.7998 22.5976 41.8908 22.5976 40.7696H19.3976ZM19.3976 37.0617V40.7696H22.5976V37.0617H19.3976ZM20.4494 38.5773C20.5152 38.5928 20.5811 38.608 20.6471 38.6228L21.3482 35.5005C21.2928 35.4881 21.2376 35.4754 21.1825 35.4624L20.4494 38.5773ZM22.4159 40.7696V37.0199H19.2159V40.7696H22.4159ZM17.1857 45.9998C20.0743 45.9998 22.4159 43.6581 22.4159 40.7696H19.2159C19.2159 41.8908 18.3069 42.7998 17.1857 42.7998V45.9998ZM11.9554 40.7696C11.9554 43.6581 14.2971 45.9998 17.1857 45.9998V42.7998C16.0644 42.7998 15.1554 41.8908 15.1554 40.7696H11.9554ZM11.9554 35.6871V40.7696H15.1554V35.6871H11.9554ZM11.9221 37.2871H13.5554V34.0871H11.9221V37.2871ZM5.0582 30.4232C5.0582 34.214 8.13127 37.2871 11.9221 37.2871V34.0871C9.89857 34.0871 8.2582 32.4467 8.2582 30.4232H5.0582ZM7.24183 25.4024C5.90041 26.6533 5.0582 28.4411 5.0582 30.4232H8.2582C8.2582 29.3651 8.70468 28.4137 9.42418 27.7428L7.24183 25.4024ZM5.23963 19.3511C5.23963 22.1408 5.81894 24.7994 6.86534 27.2098L9.80068 25.9355C8.92558 23.9197 8.43963 21.6942 8.43963 19.3511H5.23963ZM24.9909 -0.400171C14.0826 -0.400171 5.23963 8.44277 5.23963 19.3511H8.43963C8.43963 10.2101 15.8499 2.79983 24.9909 2.79983V-0.400171ZM44.7422 19.3511C44.7422 8.44277 35.8992 -0.400171 24.9909 -0.400171V2.79983C34.1319 2.79983 41.5422 10.2101 41.5422 19.3511H44.7422Z" fill="black" mask="url(#path-2-inside-1_2787_4944)"/>
<mask id="path-4-inside-2_2787_4944" fill="white">
<path fill-rule="evenodd" clip-rule="evenodd" d="M17.0038 24.9781C20.1115 24.9781 22.6307 22.4589 22.6307 19.3513C22.6307 16.2436 20.1115 13.7244 17.0038 13.7244C13.8962 13.7244 11.377 16.2436 11.377 19.3513C11.377 22.4589 13.8962 24.9781 17.0038 24.9781ZM32.7954 24.9782C35.9031 24.9782 38.4223 22.459 38.4223 19.3514C38.4223 16.2437 35.9031 13.7245 32.7954 13.7245C29.6878 13.7245 27.1685 16.2437 27.1685 19.3514C27.1685 22.459 29.6878 24.9782 32.7954 24.9782Z"/>
</mask>
<path fill-rule="evenodd" clip-rule="evenodd" d="M17.0038 24.9781C20.1115 24.9781 22.6307 22.4589 22.6307 19.3513C22.6307 16.2436 20.1115 13.7244 17.0038 13.7244C13.8962 13.7244 11.377 16.2436 11.377 19.3513C11.377 22.4589 13.8962 24.9781 17.0038 24.9781ZM32.7954 24.9782C35.9031 24.9782 38.4223 22.459 38.4223 19.3514C38.4223 16.2437 35.9031 13.7245 32.7954 13.7245C29.6878 13.7245 27.1685 16.2437 27.1685 19.3514C27.1685 22.459 29.6878 24.9782 32.7954 24.9782Z" fill="url(#paint0_linear_2787_4944)"/>
<path d="M21.0307 19.3513C21.0307 21.5752 19.2278 23.3781 17.0038 23.3781V26.5781C20.9951 26.5781 24.2307 23.3426 24.2307 19.3513H21.0307ZM17.0038 15.3244C19.2278 15.3244 21.0307 17.1273 21.0307 19.3513H24.2307C24.2307 15.36 20.9951 12.1244 17.0038 12.1244V15.3244ZM12.977 19.3513C12.977 17.1273 14.7799 15.3244 17.0038 15.3244V12.1244C13.0125 12.1244 9.77695 15.36 9.77695 19.3513H12.977ZM17.0038 23.3781C14.7799 23.3781 12.977 21.5752 12.977 19.3513H9.77695C9.77695 23.3426 13.0125 26.5781 17.0038 26.5781V23.3781ZM36.8223 19.3514C36.8223 21.5753 35.0194 23.3782 32.7954 23.3782V26.5782C36.7867 26.5782 40.0223 23.3427 40.0223 19.3514H36.8223ZM32.7954 15.3245C35.0194 15.3245 36.8223 17.1274 36.8223 19.3514H40.0223C40.0223 15.3601 36.7867 12.1245 32.7954 12.1245V15.3245ZM28.7685 19.3514C28.7685 17.1274 30.5714 15.3245 32.7954 15.3245V12.1245C28.8041 12.1245 25.5685 15.3601 25.5685 19.3514H28.7685ZM32.7954 23.3782C30.5714 23.3782 28.7685 21.5753 28.7685 19.3514H25.5685C25.5685 23.3427 28.8041 26.5782 32.7954 26.5782V23.3782Z" fill="black" mask="url(#path-4-inside-2_2787_4944)"/>
<path d="M24.0459 23.4041C24.5211 22.7914 25.4604 22.7914 25.9355 23.4041L26.0303 23.5447L28.3242 27.5173L28.3984 27.6697C28.7122 28.4387 28.1502 29.3171 27.2842 29.3171H22.6973C21.7735 29.3171 21.1953 28.3173 21.6572 27.5173L23.9512 23.5447L24.0459 23.4041Z" fill="url(#paint1_linear_2787_4944)" stroke="black" stroke-width="1.6"/>
<path fill-rule="evenodd" clip-rule="evenodd" d="M48.3975 6.12811C48.7099 6.44053 49.2164 6.44053 49.5289 6.12811C49.8413 5.81569 49.8413 5.30916 49.5289 4.99674L47.8319 3.29981L49.5289 1.60289C49.8413 1.29047 49.8413 0.783938 49.5289 0.471519C49.2164 0.1591 48.7099 0.1591 48.3975 0.471519L46.7006 2.16844L45.0034 0.471253C44.691 0.158834 44.1844 0.158834 43.872 0.471253C43.5596 0.783672 43.5596 1.2902 43.872 1.60262L45.5692 3.29981L43.872 4.997C43.5596 5.30942 43.5596 5.81595 43.872 6.12837C44.1844 6.44079 44.691 6.44079 45.0034 6.12837L46.7006 4.43118L48.3975 6.12811Z" fill="black"/>
<path fill-rule="evenodd" clip-rule="evenodd" d="M5.5048 37.2026C5.81722 36.8902 5.81722 36.3836 5.5048 36.0712C5.19238 35.7588 4.68585 35.7588 4.37343 36.0712L3.28793 37.1567L2.2026 36.0714C1.89018 35.759 1.38365 35.759 1.07123 36.0714C0.758809 36.3838 0.75881 36.8903 1.07123 37.2028L2.15656 38.2881L1.07123 39.3734C0.758809 39.6858 0.758809 40.1924 1.07123 40.5048C1.38365 40.8172 1.89018 40.8172 2.2026 40.5048L3.28793 39.4195L4.37343 40.505C4.68585 40.8174 5.19238 40.8174 5.5048 40.505C5.81722 40.1925 5.81722 39.686 5.5048 39.3736L4.4193 38.2881L5.5048 37.2026Z" fill="black"/>
<defs>
<linearGradient id="paint0_linear_2787_4944" x1="24.8996" y1="13.7244" x2="24.8996" y2="24.9781" gradientUnits="userSpaceOnUse">
<stop stop-color="#20ACA4"/>
<stop offset="0.567308" stop-color="#53D8D1"/>
<stop offset="1" stop-color="#62F5EA"/>
</linearGradient>
<linearGradient id="paint1_linear_2787_4944" x1="24.9907" y1="23.3445" x2="24.9907" y2="30.242" gradientUnits="userSpaceOnUse">
<stop stop-color="#20ACA4"/>
<stop offset="0.567308" stop-color="#53D8D1"/>
<stop offset="1" stop-color="#62F5EA"/>
</linearGradient>
</defs>
</svg>
