<svg width="80" height="40" viewBox="0 0 80 40" fill="none" xmlns="http://www.w3.org/2000/svg">
<path d="M65.7453 37.7714H69.6913C74.0162 37.7714 76.8888 35.4078 76.8888 31.8623C76.8888 28.1303 73.7952 25.4556 69.4703 25.4556H67.6394V24.9269H69.0284C72.0905 24.9269 74.3003 23.1853 74.3003 20.7283C74.3003 18.2092 72.0274 16.5298 68.5549 16.5298H65.7453V16.5609C66.1557 16.9341 66.3135 17.4628 66.3135 18.1781V36.1231C66.3135 36.8384 66.1557 37.336 65.7453 37.7092V37.7714ZM60.5681 38.3312V38.0202H61.7677C63.4408 38.0202 63.6302 37.8647 63.6302 36.3719V17.8982C63.6302 16.4054 63.4408 16.2499 61.7677 16.2499H60.5681V15.97H69.0284C73.953 15.97 77.2677 17.836 77.2677 20.6661C77.2677 22.4389 75.4683 24.6159 72.2799 25.0202V25.1446C76.7626 25.4245 79.8878 28.6901 79.8878 31.8623C79.8878 35.7499 75.6893 38.3312 70.3227 38.3312H60.5681Z" fill="#FEFFFF"/>
<path d="M40.2122 15.97H49.0818V16.2509H47.5613C45.8824 16.2509 45.724 16.407 45.724 17.9054V34.4194C45.724 36.8232 47.1812 38.1031 49.9371 38.1031C53.6433 38.1031 55.6707 36.4174 55.6707 33.2956V18.4674C55.6707 16.9689 55.3539 16.2509 53.7067 16.2509H52.4079V15.97H59.1869V16.2509H58.2999C56.621 16.2509 56.3042 16.9689 56.3042 18.4674V33.2956C56.3042 36.792 54.0868 38.665 49.9371 38.665C45.7874 38.665 42.9998 36.511 42.9998 33.2956V17.9054C42.9998 16.407 42.778 16.2509 41.0991 16.2509H40.2122V15.97Z" fill="#FEFFFF"/>
<path d="M22.6187 38.4084V38.1275H23.8241C25.5055 38.1275 25.6958 37.753 25.6958 36.2551V17.8736C25.6958 16.3757 25.5055 16.2508 23.8241 16.2508H22.6187V15.97H31.5013V16.2508H30.2958C28.6144 16.2508 28.3924 16.3757 28.3924 17.8736V36.1926C28.3924 36.8792 28.0434 37.441 27.631 37.8155V37.8467H32.3578C35.6888 37.8467 37.9412 37.2537 38.2267 34.2578L38.4805 31.137H39.1784L38.4805 40L38.1315 39.9688L38.2901 38.1275H38.2584C38.0046 38.346 37.8777 38.4084 37.3067 38.4084H22.6187Z" fill="#FEFFFF"/>
<path d="M0.226564 27.231L0.194824 27.2001C0.194824 20.4323 5.084 15.9205 12.386 15.9205C14.7354 15.9205 16.9895 16.5695 18.7991 17.8983C18.9579 18.0528 19.0849 18.3 19.1801 18.5164L19.4023 18.4546C19.3388 18.2073 19.3071 17.8674 19.3071 17.5584L19.2436 15.3025H19.5611L19.8786 24.2334L19.2436 24.2643L19.1484 21.3903C18.9579 18.6091 15.5608 16.4459 12.132 16.4459C6.38567 16.4459 3.30612 20.0306 3.30612 26.7056C3.30612 34.0914 6.54441 38.0778 12.513 38.0778C15.8148 38.0778 19.0531 36.4709 20.2913 33.8751L20.8945 34.0914C19.5293 37.1817 16.1323 38.665 12.4813 38.665C5.14751 38.665 0.226564 34.0914 0.226564 27.231Z" fill="#FEFFFF"/>
<path d="M68.874 12.6325L68.9258 12.4823H69.5985C70.4955 12.4823 70.599 12.3821 70.599 11.4476V1.66876C70.599 0.867756 70.4955 0.784318 69.5985 0.784318H68.9258V0.63413H73.2727V0.784318H73.1002C72.186 0.784318 72.0825 0.867756 72.0825 1.66876V5.42345C72.7552 5.42345 73.1347 5.39008 73.3072 5.18983L76.3087 1.86901C76.5329 1.60201 76.6364 1.40176 76.6364 1.23488C76.6364 0.917819 76.2397 0.784318 75.6532 0.784318H75.4807V0.63413H79.6723V0.784318H79.4308C78.6029 0.784318 77.4471 1.05132 76.6536 1.93576L73.6349 5.28995L73.6522 5.3567C76.0499 5.84064 76.7916 7.34252 77.1021 8.82771C77.4816 10.63 77.2919 12.4155 78.7581 12.4155C78.9996 12.4155 79.3101 12.3154 79.6551 12.0818L79.8966 11.9149L80.0001 12.0317L79.7586 12.1986C79.2239 12.6158 78.7064 12.816 78.2061 12.816C76.1707 12.816 75.9809 10.8636 75.5842 8.99458C75.2047 7.25908 74.6354 5.57364 72.255 5.57364H72.0135V11.4476C72.0135 12.3821 72.1342 12.4823 73.0484 12.4823H73.7039V12.6325H68.874Z" fill="#FECD19"/>
<path d="M64.5214 9.19483H64.3489V8.27701C64.3489 6.67501 63.3656 6.49145 62.2961 6.49145H61.5371V11.4476C61.5371 11.8148 61.3474 12.1151 61.1232 12.3154V12.3321H64.9008C66.7293 12.3321 67.5918 11.6813 67.7298 10.0793L67.8506 8.74426H68.1438L67.8161 13.2666L67.6608 13.2499L67.7126 12.4823H67.6953C67.5573 12.5991 67.2986 12.6325 66.9881 12.6325H58.3977V12.4823H59.0532C59.9674 12.4823 60.0709 12.3988 60.0709 11.5978V1.66875C60.0709 0.867751 59.9674 0.784313 59.0532 0.784313H58.3977V0.634126H65.9703C66.2636 0.634126 66.5396 0.667501 66.6603 0.784313H66.6948L66.6258 0.0166873L66.7983 0L67.1433 4.52232H66.7983L66.7293 3.35419C66.6086 1.55194 65.6253 0.934501 63.7969 0.934501H61.1232V0.951188C61.3474 1.15144 61.5371 1.45181 61.5371 1.81894V6.19107H62.2961C63.3656 6.19107 64.3489 6.0242 64.3489 4.42219V3.83813H64.5214V9.19483Z" fill="#FECD19"/>
<path d="M46.2178 12.6325V12.4823H46.8733C47.7875 12.4823 47.891 12.2486 47.891 11.4476V1.81895C47.891 1.01794 47.7875 0.784318 46.8733 0.784318H46.2178V0.63413H50.8752V0.784318H50.3922C49.478 0.784318 49.3572 1.01794 49.3572 1.81895V6.17439H54.5666V1.81895C54.5666 1.01794 54.4459 0.784318 53.5317 0.784318H53.0487V0.63413H57.7233V0.784318H57.0506C56.1364 0.784318 56.0501 1.01794 56.0501 1.81895V11.4476C56.0501 12.2486 56.1364 12.4823 57.0506 12.4823H57.7233V12.6325H53.0487V12.4823H53.5662C54.4631 12.4823 54.5666 12.2486 54.5666 11.4476V6.47477H49.3572V11.4476C49.3572 12.2486 49.478 12.4823 50.3922 12.4823H50.8752V12.6325H46.2178Z" fill="#FECD19"/>
<path d="M37.3276 8.54401L37.6554 8.5607L37.6899 9.24489C37.7934 11.214 39.3114 12.4823 41.1226 12.4823C42.8475 12.4823 43.9688 11.5978 43.9688 9.96245C43.9688 6.90864 37.7244 6.90864 37.7244 3.20401C37.7244 1.58532 39.2251 0.500626 41.4676 0.500626C42.6061 0.500626 43.3995 0.851064 43.986 1.23488C44.124 1.31832 44.262 1.56863 44.2965 1.61869L44.4173 1.58531C44.3828 1.4685 44.3655 1.28494 44.3483 1.05132L44.2965 0.166876H44.4863L44.6933 4.10513L44.3483 4.12182L44.3138 3.42094C44.2275 2.10263 43.3478 0.801001 41.4676 0.801001C39.9323 0.801001 39.0526 1.51857 39.0526 2.83688C39.0526 5.79057 45.3833 5.7572 45.3833 9.67877C45.3833 11.6813 43.779 12.766 41.1571 12.766C39.9841 12.766 39.1216 12.4656 38.1556 11.8648C38.0176 11.7814 37.7416 11.4643 37.6899 11.3141L37.6036 11.3308C37.6726 11.4977 37.6726 11.8481 37.6899 12.0484L37.7416 13.0997H37.5691L37.3276 8.54401Z" fill="#FECD19"/>
<path d="M32.7843 9.19483H32.6118V8.27701C32.6118 6.67501 31.6286 6.49145 30.5591 6.49145H29.8001V11.4476C29.8001 11.8148 29.6103 12.1151 29.3861 12.3154V12.3321H33.1638C34.9923 12.3321 35.8547 11.6813 35.9927 10.0793L36.1135 8.74426H36.4067L36.079 13.2666L35.9238 13.2499L35.9755 12.4823H35.9583C35.8203 12.5991 35.5615 12.6325 35.251 12.6325H26.6606V12.4823H27.3161C28.2304 12.4823 28.3339 12.3988 28.3339 11.5978V1.66875C28.3339 0.867751 28.2304 0.784313 27.3161 0.784313H26.6606V0.634126H34.2333C34.5265 0.634126 34.8025 0.667501 34.9233 0.784313H34.9578L34.8888 0.0166873L35.0613 0L35.4063 4.52232H35.0613L34.9923 3.35419C34.8715 1.55194 33.8883 0.934501 32.0598 0.934501H29.3861V0.951188C29.6103 1.15144 29.8001 1.45181 29.8001 1.81894V6.19107H30.5591C31.6286 6.19107 32.6118 6.0242 32.6118 4.42219V3.83813H32.7843V9.19483Z" fill="#FECD19"/>
<path d="M14.9699 12.6325L14.9526 12.499H15.6081C16.5224 12.499 16.6259 12.4155 16.6259 11.6145V1.68544C16.6259 0.884439 16.5224 0.801002 15.6081 0.801002H14.9526V0.650814H19.9033C22.9393 0.650814 24.9402 2.136 24.9402 4.35544C24.9402 6.39132 23.198 7.77639 20.921 7.95995L20.5415 7.97664V8.07676C21.4385 8.1602 22.232 8.64414 22.646 9.2282L23.5947 10.5465C24.095 11.2307 24.7332 12.2653 25.475 12.2653C25.6475 12.2653 25.8372 12.1986 26.027 12.0651L26.441 11.748L26.5444 11.8648L26.1305 12.1819C25.5095 12.6325 25.0092 12.816 24.5435 12.816C23.5775 12.816 22.922 11.9483 22.3355 11.1306L21.0073 9.32833C20.369 8.47726 19.9723 8.04339 19.1271 8.04339H18.9028V7.7597H19.7653C22.0768 7.7597 23.3188 6.5582 23.3188 4.33876C23.3188 2.11932 22.0768 0.934502 19.7653 0.934502H17.7988V0.95119C18.0231 1.15144 18.1093 1.43513 18.1093 1.81894V11.5978C18.1093 12.3988 18.2301 12.4823 19.1443 12.4823H20.2483V12.6325H14.9699Z" fill="#FECD19"/>
<path d="M7.03789 12.766C2.8117 12.766 0 10.3129 0 6.62495C0 2.95369 2.8117 0.500626 7.03789 0.500626C11.2296 0.500626 14.0413 2.95369 14.0413 6.62495C14.0413 10.3129 11.2296 12.766 7.03789 12.766ZM7.10688 12.4656C10.5396 12.4656 12.3853 10.5298 12.3853 6.94201C12.3853 2.95369 10.4878 0.801001 6.96888 0.801001C3.51894 0.801001 1.65597 2.73675 1.65597 6.32457C1.65597 10.3129 3.55344 12.4656 7.10688 12.4656Z" fill="#FECD19"/>
</svg>
