<svg width="50" height="50" viewBox="0 0 50 50" fill="none" xmlns="http://www.w3.org/2000/svg">
<g clip-path="url(#clip0_2787_4807)">
<path d="M25.0004 -22.8L27.7767 -20.5681C30.7525 -18.1758 34.3509 -16.6853 38.1467 -16.2727L41.6881 -15.8878L42.073 -12.3464C42.4856 -8.55056 43.9761 -4.95217 46.3684 -1.97639L48.6004 0.79995L46.3684 3.57629C43.9761 6.55208 42.4856 10.1505 42.073 13.9463L41.6881 17.4877L38.1467 17.8726C34.3509 18.2852 30.7525 19.7757 27.7767 22.168L25.0004 24.3999L22.224 22.168C19.2483 19.7757 15.6499 18.2852 11.8541 17.8726L8.31267 17.4877L7.92773 13.9463C7.51515 10.1505 6.02465 6.55208 3.63236 3.5763L1.40039 0.79995L3.63235 -1.97639C6.02465 -4.95217 7.51515 -8.55056 7.92773 -12.3464L8.31267 -15.8878L11.8541 -16.2727C15.6499 -16.6853 19.2483 -18.1758 22.224 -20.5681L25.0004 -22.8Z" fill="#FEFFFF" fill-opacity="0.01"/>
<path fill-rule="evenodd" clip-rule="evenodd" d="M25.0003 -15.5469L24.8423 -15.4199C21.8396 -13.006 18.2499 -11.4422 14.4478 -10.8837L18.0714 -7.26011C20.6035 -7.70464 22.9883 -8.78234 25.0003 -10.3999C27.0123 -8.78235 29.397 -7.70466 31.9291 -7.26012L35.5527 -10.8837C31.7506 -11.4422 28.161 -13.006 25.1583 -15.4199L25.0003 -15.5469ZM30.5781 -5.90909C28.585 -6.39444 26.6942 -7.23991 25.0003 -8.40632C23.3064 -7.2399 21.4156 -6.39441 19.4225 -5.90907L24.6249 -0.706614C24.7368 -0.766188 24.8646 -0.799946 25.0003 -0.799946C25.1359 -0.799946 25.2637 -0.766186 25.3756 -0.706612L30.5781 -5.90909ZM16.9401 -6.12874L13.3164 -9.75236C12.7972 -6.21766 11.4092 -2.86658 9.27694 -2.86102e-05H14.4015C15.6864 -1.8322 16.5531 -3.92464 16.9401 -6.12874ZM16.3121 -2.86102e-05C17.2133 -1.48138 17.8809 -3.093 18.2911 -4.7777L23.0688 -2.86102e-05H16.3121ZM14.4013 1.59997H9.27668C11.4091 4.46657 12.7972 7.81775 13.3164 11.3526L16.94 7.72894C16.5531 5.52473 15.6863 3.43219 14.4013 1.59997ZM18.2911 6.37791C17.8808 4.6931 17.2132 3.0814 16.3119 1.59997H23.069L18.2911 6.37791ZM18.0713 8.86037L14.4477 12.484C17.9825 13.0032 21.3337 14.3913 24.2003 16.5236V11.399C22.368 10.1141 20.2755 9.24732 18.0713 8.86037ZM24.2003 9.48837C22.7188 8.58715 21.1072 7.91958 19.4224 7.50934L24.2003 2.73147V9.48837ZM25.8003 11.3991V16.5237C28.6669 14.3913 32.018 13.0032 35.5528 12.484L31.9292 8.86039C29.725 9.24735 27.6325 10.1141 25.8003 11.3991ZM30.5781 7.50936C28.8934 7.91961 27.2817 8.58719 25.8003 9.48843V2.73146L30.5781 7.50936ZM33.0605 7.72902L36.6842 11.3527C37.2034 7.81781 38.5915 4.4666 40.7239 1.59997H35.5993C34.3143 3.43222 33.4475 5.52478 33.0605 7.72902ZM33.6887 1.59997C32.7874 3.08142 32.1198 4.69315 31.7095 6.37799L26.9315 1.59997H33.6887ZM33.6885 -2.67029e-05H26.9317L31.7095 -4.77778C32.1197 -3.09304 32.7873 -1.48141 33.6885 -2.67029e-05ZM35.5991 -2.67029e-05C34.3142 -1.83222 33.4475 -3.92469 33.0605 -6.12882L36.6842 -9.75245C37.2033 -6.21772 38.5914 -2.8666 40.7237 -2.67029e-05H35.5991ZM10.0097 -15.3219L13.01 -12.3215L13.4698 -12.3715C17.2656 -12.7841 20.864 -14.2746 23.8398 -16.6669L25.0003 -17.5999L26.1608 -16.6669C29.1366 -14.2746 32.735 -12.7841 36.5308 -12.3715L36.9905 -12.3215L39.991 -15.322C40.3034 -15.6344 40.8099 -15.6344 41.1224 -15.322C41.4348 -15.0096 41.4348 -14.5031 41.1224 -14.1906L38.122 -11.1903L38.172 -10.7303C38.5846 -6.93452 40.0751 -3.33613 42.4674 -0.360352L42.757 -2.67029e-05H47.0002C47.442 -2.67029e-05 47.8002 0.358145 47.8002 0.799973C47.8002 1.2418 47.442 1.59997 47.0002 1.59997H42.7573L42.4674 1.96064C40.0751 4.93643 38.5846 8.53481 38.172 12.3306L38.122 12.7905L41.1224 15.7908C41.4348 16.1033 41.4348 16.6098 41.1224 16.9222C40.8099 17.2346 40.3034 17.2346 39.991 16.9222L36.9906 13.9218L36.5308 13.9718C32.735 14.3844 29.1366 15.8749 26.1608 18.2672L25.8003 18.5571V33.2C25.8003 33.6419 25.4421 34 25.0003 34C24.5584 34 24.2003 33.6419 24.2003 33.2V18.557L23.8398 18.2672C20.864 15.8749 17.2656 14.3844 13.4698 13.9718L13.0099 13.9218L10.0097 16.9221C9.69725 17.2345 9.19072 17.2345 8.8783 16.922C8.56588 16.6096 8.56587 16.1031 8.8783 15.7907L11.8786 12.7904L11.8286 12.3306C11.4161 8.53481 9.92556 4.93643 7.53326 1.96065L7.2433 1.59997H3.00019C2.55836 1.59997 2.2002 1.2418 2.2002 0.799971C2.2002 0.358143 2.55836 -2.86102e-05 3.00019 -2.86102e-05H7.24359L7.53326 -0.360355C9.92555 -3.33614 11.4161 -6.93452 11.8286 -10.7303L11.8786 -11.1902L8.8783 -14.1905C8.56587 -14.5029 8.56588 -15.0094 8.8783 -15.3219C9.19072 -15.6343 9.69725 -15.6343 10.0097 -15.3219Z" fill="#44CBC3"/>
<path fill-rule="evenodd" clip-rule="evenodd" d="M25.0002 32.4001C25.442 32.4001 25.8002 32.7583 25.8002 33.2001V34.4546C26.0126 34.4839 26.2213 34.5247 26.4257 34.5764L26.8984 33.4152C27.0649 33.006 27.5317 32.8093 27.941 32.9759C28.3502 33.1424 28.5469 33.6092 28.3803 34.0184L27.9074 35.1801C28.1121 35.2989 28.3089 35.4299 28.4968 35.5721L29.3842 34.6847C29.6966 34.3723 30.2031 34.3723 30.5155 34.6847C30.828 34.9971 30.828 35.5036 30.5155 35.8161L29.6281 36.7035C29.7455 36.8586 29.8552 37.0197 29.9568 37.1865L31.1084 36.6888C31.514 36.5135 31.9848 36.7002 32.1601 37.1058C32.3354 37.5114 32.1487 37.9822 31.7431 38.1575L30.5921 38.6549C30.6589 38.8973 30.7104 39.1461 30.7454 39.4H32.0002C32.442 39.4 32.8002 39.7582 32.8002 40.2C32.8002 40.6419 32.442 41 32.0002 41H30.7454C30.7103 41.254 30.6588 41.5028 30.592 41.7452L31.7431 42.2427C32.1487 42.4179 32.3354 42.8888 32.1601 43.2944C31.9848 43.7 31.514 43.8867 31.1084 43.7114L29.9566 43.2136C29.8551 43.3803 29.7454 43.5414 29.628 43.6965L30.5157 44.5842C30.8281 44.8966 30.8281 45.4031 30.5157 45.7156C30.2033 46.028 29.6967 46.028 29.3843 45.7156L28.4966 44.8279C28.3088 44.97 28.112 45.101 27.9073 45.2198L28.3804 46.382C28.547 46.7913 28.3503 47.258 27.941 47.4246C27.5318 47.5912 27.065 47.3945 26.8985 46.9853L26.4255 45.8234C26.2212 45.8751 26.0125 45.9159 25.8002 45.9452V47.2001C25.8002 47.642 25.442 48.0001 25.0002 48.0001C24.5584 48.0001 24.2002 47.642 24.2002 47.2001V45.9452C23.9878 45.9159 23.7792 45.8751 23.5748 45.8235L23.1019 46.9853C22.9353 47.3945 22.4686 47.5912 22.0593 47.4246C21.6501 47.258 21.4534 46.7913 21.62 46.382L22.0931 45.2199C21.8883 45.1011 21.6915 44.9701 21.5037 44.8279L20.616 45.7156C20.3036 46.028 19.7971 46.028 19.4847 45.7156C19.1722 45.4031 19.1722 44.8966 19.4847 44.5842L20.3723 43.6966C20.2549 43.5415 20.1452 43.3803 20.0436 43.2136L18.8919 43.7114C18.4863 43.8867 18.0154 43.7 17.8401 43.2944C17.6649 42.8888 17.8516 42.4179 18.2571 42.2427L19.4082 41.7452C19.3414 41.5028 19.2899 41.254 19.2548 41H18.0002C17.5584 41 17.2002 40.6419 17.2002 40.2C17.2002 39.7582 17.5584 39.4 18.0002 39.4H19.2548C19.2898 39.1461 19.3413 38.8973 19.4081 38.6549L18.2571 38.1575C17.8516 37.9822 17.6649 37.5114 17.8401 37.1058C18.0154 36.7002 18.4863 36.5135 18.8919 36.6888L20.0434 37.1865C20.145 37.0197 20.2548 36.8585 20.3721 36.7034L19.4848 35.8161C19.1724 35.5036 19.1724 34.9971 19.4848 34.6847C19.7973 34.3723 20.3038 34.3723 20.6162 34.6847L21.5035 35.572C21.6914 35.4298 21.8882 35.2988 22.0929 35.18L21.6201 34.0184C21.4535 33.6092 21.6502 33.1424 22.0594 32.9759C22.4686 32.8093 22.9354 33.006 23.102 33.4152L23.5747 34.5764C23.7791 34.5247 23.9878 34.4839 24.2002 34.4546V33.2001C24.2002 32.7583 24.5584 32.4001 25.0002 32.4001Z" fill="#44CBC3"/>
<path fill-rule="evenodd" clip-rule="evenodd" d="M24.6006 39.3999C24.6006 40.5045 23.7052 41.3999 22.6006 41.3999C21.496 41.3999 20.6006 40.5045 20.6006 39.3999C20.6006 38.2953 21.496 37.3999 22.6006 37.3999C23.7052 37.3999 24.6006 38.2953 24.6006 39.3999ZM24.0006 39.3998C24.0006 39.8417 23.6425 40.1998 23.2006 40.1998C22.7588 40.1998 22.4006 39.8417 22.4006 39.3998C22.4006 38.958 22.7588 38.5998 23.2006 38.5998C23.6425 38.5998 24.0006 38.958 24.0006 39.3998ZM29.4004 39.4C29.4004 40.5045 28.505 41.4 27.4004 41.4C26.2959 41.4 25.4004 40.5045 25.4004 39.4C25.4004 38.2954 26.2959 37.4 27.4004 37.4C28.505 37.4 29.4004 38.2954 29.4004 39.4ZM28.0005 40.0002C28.0005 40.442 27.6424 40.8002 27.2005 40.8002C26.7587 40.8002 26.4005 40.442 26.4005 40.0002C26.4005 39.5584 26.7587 39.2002 27.2005 39.2002C27.6424 39.2002 28.0005 39.5584 28.0005 40.0002Z" fill="black"/>
</g>
<defs>
<clipPath id="clip0_2787_4807">
<rect width="45.6" height="50" fill="white" transform="translate(2.2002)"/>
</clipPath>
</defs>
</svg>
